<svg xmlns="http://www.w3.org/2000/svg" width="256" height="256" viewBox="0 0 24 24" role="img"><title>seed / ID 25 / Soft</title><rect x="-2.74603" y="-1.2" width="5.492061" height="2.4" rx="1.2" transform="translate(17.580378 10.874638) rotate(71.066526)" fill="#f5f5f8" opacity="1"/><rect x="-2.63725" y="-1.2" width="5.2745" height="2.4" rx="1.2" transform="translate(18.120693 13.773752) rotate(88.458058)" fill="#f5f5f8" opacity="1"/><rect x="-2.467574" y="-1.2" width="4.935148" height="2.4" rx="1.2" transform="translate(17.729188 16.402828) rotate(109.838629)" fill="#f5f5f8" opacity="1"/><rect x="-2.332352" y="-1.2" width="4.664705" height="2.4" rx="1.2" transform="translate(16.465466 18.361613) rotate(137.401582)" fill="#f5f5f8" opacity="1"/><rect x="-2.332352" y="-1.2" width="4.664705" height="2.4" rx="1.2" transform="translate(14.521918 19.351901) rotate(168.598418)" fill="#f5f5f8" opacity="1"/><rect x="-2.467574" y="-1.2" width="4.935148" height="2.4" rx="1.2" transform="translate(12.19443 19.222928) rotate(-163.838629)" fill="#f5f5f8" opacity="1"/><rect x="-2.63725" y="-1.2" width="5.2745" height="2.4" rx="1.2" transform="translate(9.837342 17.99433) rotate(-142.458058)" fill="#f5f5f8" opacity="1"/><rect x="-2.74603" y="-1.2" width="5.492061" height="2.4" rx="1.2" transform="translate(7.809499 15.853149) rotate(-125.066526)" fill="#f5f5f8" opacity="1"/><rect x="-2.74603" y="-1.2" width="5.492061" height="2.4" rx="1.2" transform="translate(6.419622 13.125362) rotate(-108.933474)" fill="#f5f5f8" opacity="1"/><rect x="-2.63725" y="-1.2" width="5.2745" height="2.4" rx="1.2" transform="translate(5.879307 10.226248) rotate(-91.541942)" fill="#f5f5f8" opacity="1"/><rect x="-2.467574" y="-1.2" width="4.935148" height="2.4" rx="1.2" transform="translate(6.270812 7.597172) rotate(-70.161371)" fill="#f5f5f8" opacity="1"/><rect x="-2.332352" y="-1.2" width="4.664705" height="2.4" rx="1.2" transform="translate(7.534534 5.638387) rotate(-42.598418)" fill="#f5f5f8" opacity="1"/><rect x="-2.332352" y="-1.2" width="4.664705" height="2.4" rx="1.2" transform="translate(9.478082 4.648099) rotate(-11.401582)" fill="#f5f5f8" opacity="1"/><rect x="-2.467574" y="-1.2" width="4.935148" height="2.4" rx="1.2" transform="translate(11.80557 4.777072) rotate(16.161371)" fill="#f5f5f8" opacity="1"/><rect x="-2.63725" y="-1.2" width="5.2745" height="2.4" rx="1.2" transform="translate(14.162658 6.00567) rotate(37.541942)" fill="#f5f5f8" opacity="1"/><rect x="-2.74603" y="-1.2" width="5.492061" height="2.4" rx="1.2" transform="translate(16.190501 8.146851) rotate(54.933474)" fill="#f5f5f8" opacity="1"/><rect x="-2.01068" y="-1.2" width="4.021361" height="2.4" rx="1.2" transform="translate(8.457726 15.330904) rotate(-55.62413)" fill="#f5f5f8" opacity="1"/><rect x="-2.069505" y="-1.2" width="4.13901" height="2.4" rx="1.2" transform="translate(9.425656 13.957726) rotate(-54.071498)" fill="#f5f5f8" opacity="1"/><rect x="-2.102756" y="-1.2" width="4.205512" height="2.4" rx="1.2" transform="translate(10.489796 12.540816) rotate(-52.14936)" fill="#f5f5f8" opacity="1"/><rect x="-2.111219" y="-1.2" width="4.222437" height="2.4" rx="1.2" transform="translate(11.632653 11.132653) rotate(-49.73673)" fill="#f5f5f8" opacity="1"/><rect x="-2.096108" y="-1.2" width="4.192216" height="2.4" rx="1.2" transform="translate(12.836735 9.785714) rotate(-46.647871)" fill="#f5f5f8" opacity="1"/><rect x="-2.059387" y="-1.2" width="4.118774" height="2.4" rx="1.2" transform="translate(14.084548 8.552478) rotate(-42.594029)" fill="#f5f5f8" opacity="1"/><rect x="-2.004381" y="-1.2" width="4.008762" height="2.4" rx="1.2" transform="translate(15.358601 7.485423) rotate(-37.119098)" fill="#f5f5f8" opacity="1"/></svg>
