<svg xmlns="http://www.w3.org/2000/svg" width="256" height="256" viewBox="0 0 24 24" role="img"><title>resize / ID 38 / Duotone</title><defs><linearGradient id="ink" x1="0" y1="0" x2="1" y2="1"><stop stop-color="#f5f5f8"/><stop offset="1" stop-color="#909092"/></linearGradient><linearGradient id="line0" x1="0" y1=".5" x2="1" y2=".5"><stop stop-color="#c3c3c5"/><stop offset="1" stop-color="#c3c3c5"/></linearGradient><linearGradient id="line1" x1="0" y1=".5" x2="1" y2=".5"><stop stop-color="#d3d3d6"/><stop offset="1" stop-color="#c0c0c3"/></linearGradient><linearGradient id="line2" x1="0" y1=".5" x2="1" y2=".5"><stop stop-color="#c5c5c7"/><stop offset="1" stop-color="#b2b2b4"/></linearGradient><linearGradient id="line3" x1="0" y1=".5" x2="1" y2=".5"><stop stop-color="#d3d3d6"/><stop offset="1" stop-color="#c0c0c3"/></linearGradient><linearGradient id="line4" x1="0" y1=".5" x2="1" y2=".5"><stop stop-color="#c5c5c7"/><stop offset="1" stop-color="#b2b2b4"/></linearGradient></defs><rect x="-10.899495" y="-1" width="21.79899" height="2" rx="1" transform="translate(12 12) rotate(-45)" fill="url(#line0)" opacity="1"/><rect x="-4.5" y="-1" width="9" height="2" rx="1" transform="translate(15.5 5) rotate(0)" fill="url(#line1)" opacity="1"/><rect x="-4.5" y="-1" width="9" height="2" rx="1" transform="translate(19 8.5) rotate(90)" fill="url(#line2)" opacity="1"/><rect x="-4.5" y="-1" width="9" height="2" rx="1" transform="translate(5 15.5) rotate(90)" fill="url(#line3)" opacity="1"/><rect x="-4.5" y="-1" width="9" height="2" rx="1" transform="translate(8.5 19) rotate(0)" fill="url(#line4)" opacity="1"/></svg>
