<svg xmlns="http://www.w3.org/2000/svg" width="256" height="256" viewBox="0 0 24 24" role="img"><title>filter / ID 62 / Duotone</title><defs><linearGradient id="ink" x1="0" y1="0" x2="1" y2="1"><stop stop-color="#f5f5f8"/><stop offset="1" stop-color="#909092"/></linearGradient><linearGradient id="line0" x1="0" y1=".5" x2="1" y2=".5"><stop stop-color="#e8e8eb"/><stop offset="1" stop-color="#bebec1"/></linearGradient><linearGradient id="line1" x1="0" y1=".5" x2="1" y2=".5"><stop stop-color="#c1c1c3"/><stop offset="1" stop-color="#bebec0"/></linearGradient><linearGradient id="line2" x1="0" y1=".5" x2="1" y2=".5"><stop stop-color="#c0c0c3"/><stop offset="1" stop-color="#aeaeb0"/></linearGradient><linearGradient id="line3" x1="0" y1=".5" x2="1" y2=".5"><stop stop-color="#afafb1"/><stop offset="1" stop-color="#b5b5b7"/></linearGradient><linearGradient id="line4" x1="0" y1=".5" x2="1" y2=".5"><stop stop-color="#b2b2b4"/><stop offset="1" stop-color="#c9c9cb"/></linearGradient><linearGradient id="line5" x1="0" y1=".5" x2="1" y2=".5"><stop stop-color="#c4c4c6"/><stop offset="1" stop-color="#e9e9ec"/></linearGradient></defs><rect x="-10" y="-1" width="20" height="2" rx="1" transform="translate(12 4) rotate(0)" fill="url(#line0)" opacity="1"/><rect x="-6.315073" y="-1" width="12.630146" height="2" rx="1" transform="translate(17.5 8) rotate(131.185925)" fill="url(#line1)" opacity="1"/><rect x="-4.5" y="-1" width="9" height="2" rx="1" transform="translate(14 15.5) rotate(90)" fill="url(#line2)" opacity="1"/><rect x="-3.236068" y="-1" width="6.472136" height="2" rx="1" transform="translate(12 20) rotate(153.434949)" fill="url(#line3)" opacity="1"/><rect x="-5.5" y="-1" width="11" height="2" rx="1" transform="translate(10 16.5) rotate(-90)" fill="url(#line4)" opacity="1"/><rect x="-6.315073" y="-1" width="12.630146" height="2" rx="1" transform="translate(6.5 8) rotate(-131.185925)" fill="url(#line5)" opacity="1"/></svg>
