<svg xmlns="http://www.w3.org/2000/svg" width="256" height="256" viewBox="0 0 24 24" role="img"><title>copy / ID 67 / Duotone</title><defs><linearGradient id="ink" x1="0" y1="0" x2="1" y2="1"><stop stop-color="#f5f5f8"/><stop offset="1" stop-color="#909092"/></linearGradient><linearGradient id="line0" x1="0" y1=".5" x2="1" y2=".5"><stop stop-color="#d5d5d8"/><stop offset="1" stop-color="#dedee1"/></linearGradient><linearGradient id="line1" x1="0" y1=".5" x2="1" y2=".5"><stop stop-color="#dedee1"/><stop offset="1" stop-color="#c0c0c3"/></linearGradient><linearGradient id="line2" x1="0" y1=".5" x2="1" y2=".5"><stop stop-color="#c5c5c7"/><stop offset="1" stop-color="#a9a9ab"/></linearGradient><linearGradient id="line3" x1="0" y1=".5" x2="1" y2=".5"><stop stop-color="#a9a9ab"/><stop offset="1" stop-color="#b0b0b2"/></linearGradient></defs><rect x="8" y="4" width="12" height="15" rx="2" fill="none" stroke="#f5f5f8" stroke-width="3" opacity=".38"/><rect x="8" y="4" width="12" height="15" rx="2" fill="none" stroke="#f5f5f8" stroke-width="2" opacity="1"/><rect x="-2" y="-1" width="4" height="2" rx="1" transform="translate(5 8) rotate(180)" fill="url(#line0)" opacity="1"/><rect x="-7" y="-1" width="14" height="2" rx="1" transform="translate(4 14) rotate(90)" fill="url(#line1)" opacity="1"/><rect x="-6.5" y="-1" width="13" height="2" rx="1" transform="translate(9.5 20) rotate(0)" fill="url(#line2)" opacity="1"/><rect x="-1.5" y="-1" width="3" height="2" rx="1" transform="translate(15 19.5) rotate(-90)" fill="url(#line3)" opacity="1"/></svg>
